<?xml version="1.0" encoding="UTF-8" standalone="no"?>
<svg t="1564024888946" class="icon" viewBox="0 0 1024 1024" version="1.1" xmlns="http://www.w3.org/2000/svg" p-id="1031" width="200" height="200">
    <path d="M774.9 305.3c55.7 0 100.8 45.1 100.8 100.8S830.6 507 774.9 507s-100.8-45.1-100.8-100.8 45.1-100.9 100.8-100.9zM147.8 406.7c0 55.7 45.1 100.8 100.8 100.8s100.8-45.1 100.8-100.8-45.1-100.8-100.8-100.8S147.8 351 147.8 406.7z" fill="#FFB74D" p-id="1032"></path>
    <path d="M926.6 707.5H624.7V642s41.5-119.3 150.9-119.3S926.5 642 926.5 642v65.5z m-527.3-65s-41.5-119.3-150.9-119.3-151 119.3-151 119.3V708h301.9v-65.5z" fill="#455A64" p-id="1033"></path>
    <path d="M383.4 384.7c0 70.7 57.3 128 128 128s128-57.3 128-128-57.3-128-128-128-128 57.3-128 128z" fill="#FFB74D" p-id="1034"></path>
    <path d="M702.7 684.1S650 532.6 511.1 532.6 319.5 684.1 319.5 684.1v83.2h383.3v-83.2z" fill="#607D8B" p-id="1035"></path>
</svg>